<svg xmlns="http://www.w3.org/2000/svg" width="30" height="30">
    <path d="M27.783 0C29.007 0 30 .963 30 2.149v25.702C30 29.038 29.007 30 27.783 30H2.217C.993 30 0 29.038 0 27.852V2.149C0 .963.993 0 2.217 0h25.566zM9.094 11.566H4.563v13.547h4.531V11.566zm11.123-.317c-2.354 0-3.436 1.259-4.046 2.177l-.038.058v-1.917h-4.53c.017.372.024 1.69.025 3.367v1.558c-.003 3.46-.021 7.58-.025 8.454l-.001.156-.001.01h4.532v-7.563c0-.405.03-.81.15-1.099.327-.81 1.072-1.647 2.324-1.647 1.64 0 2.295 1.242 2.295 3.064v7.246h4.531v-7.767c0-4.161-2.235-6.097-5.216-6.097zM6.859 5.036c-1.55 0-2.563 1.011-2.563 2.34 0 1.3.983 2.341 2.504 2.341h.03c1.58 0 2.563-1.04 2.563-2.34-.03-1.33-.984-2.34-2.534-2.34z" fill="#929497"></path>
</svg>