<svg xmlns="http://www.w3.org/2000/svg" viewBox="0 0 1649 1641"><defs><style>.cls-1{fill:#1200ff;}</style></defs><g id="Icons"><path class="cls-1" d="M1050.5,1021.83c0,70.68-34.59,134.15-89.5,177.85v90.66c0,131.81,120.21,238.66,268.5,238.66S1498,1422.15,1498,1290.34V335.67C1498,203.86,1377.79,97,1229.5,97c-93.41,0-175.65,42.42-223.75,106.76,28.26,37.79,44.75,83.13,44.75,131.9Z"/><path d="M603,798.08c0,70.68-34.58,134.15-89.5,177.85v45.9c0,131.82,120.21,238.67,268.5,238.67,68.78,0,131.49-23,179-60.82,54.91-43.7,89.5-107.17,89.5-177.85V335.66c0-48.77-16.49-94.11-44.75-131.9C957.65,139.42,875.42,97,782,97S606.35,139.42,558.25,203.76C586.5,241.55,603,286.89,603,335.66Z"/><path d="M782.5,1261c68.78,0,131.49-27.7,179-73.2,54.92-52.59,89.5-129,89.5-214V417.24c0-58.7-16.5-113.27-44.75-158.75C958.15,181.06,875.91,130,782.5,130,634.21,130,514,258.6,514,417.24V973.76C514,1132.4,634.21,1261,782.5,1261Z"/><circle class="cls-1" cx="391.01" cy="384.01" r="275.01"/></g></svg>